<mxfile host="app.diagrams.net" modified="2023-03-30T21:40:27.093Z" agent="Mozilla/5.0 (Windows NT 10.0; Win64; x64) AppleWebKit/537.36 (KHTML, like Gecko) Chrome/111.0.0.0 Safari/537.36 Edg/111.0.1661.54" etag="RmvTIDIAlkXYGbd_z5Qd" version="21.1.2" type="github">
  <diagram name="Página-1" id="rkHG6nmuOjkpt8-TUzvK">
    <mxGraphModel dx="3515" dy="477" grid="1" gridSize="10" guides="1" tooltips="1" connect="1" arrows="1" fold="1" page="1" pageScale="1" pageWidth="827" pageHeight="1169" math="0" shadow="0">
      <root>
        <mxCell id="0" />
        <mxCell id="1" parent="0" />
        <mxCell id="nVL4J-MFMbPPPKdqbXxZ-2" value="&lt;span style=&quot;font-size: 40px;&quot;&gt;Projetos Culturais&lt;/span&gt;" style="text;html=1;strokeColor=none;fillColor=none;align=center;verticalAlign=middle;whiteSpace=wrap;rounded=0;" parent="1" vertex="1">
          <mxGeometry x="-1609" y="30" width="329" height="30" as="geometry" />
        </mxCell>
        <mxCell id="ASfWBYzMuZ3_pJoTGtA6-18" value="Casos de&amp;nbsp; uso avaliar projetos" style="shape=rect;html=1;verticalAlign=top;fontStyle=1;whiteSpace=wrap;align=center;fillColor=#f5f5f5;fontColor=#333333;strokeColor=#666666;" parent="1" vertex="1">
          <mxGeometry x="-1490" y="240" width="610" height="460" as="geometry" />
        </mxCell>
        <mxCell id="ASfWBYzMuZ3_pJoTGtA6-19" value="Consulta&amp;nbsp;&lt;br&gt;Projetos &lt;br&gt;Aprovados" style="ellipse;whiteSpace=wrap;html=1;shadow=1;" parent="1" vertex="1">
          <mxGeometry x="-1040" y="465" width="150" height="65" as="geometry" />
        </mxCell>
        <mxCell id="ASfWBYzMuZ3_pJoTGtA6-20" value="Aprovador" style="shape=umlActor;html=1;verticalLabelPosition=bottom;verticalAlign=top;align=center;" parent="1" vertex="1">
          <mxGeometry x="-1654" y="390" width="30" height="60" as="geometry" />
        </mxCell>
        <mxCell id="ASfWBYzMuZ3_pJoTGtA6-22" value="Aprovar &lt;br&gt;Projeto" style="ellipse;whiteSpace=wrap;html=1;shadow=1;" parent="1" vertex="1">
          <mxGeometry x="-1050" y="620" width="123" height="60" as="geometry" />
        </mxCell>
        <mxCell id="ASfWBYzMuZ3_pJoTGtA6-24" value="" style="edgeStyle=none;html=1;endArrow=block;endFill=0;endSize=12;verticalAlign=bottom;rounded=0;entryX=0;entryY=0.714;entryDx=0;entryDy=0;entryPerimeter=0;exitX=0.5;exitY=0.5;exitDx=0;exitDy=0;exitPerimeter=0;" parent="1" source="ASfWBYzMuZ3_pJoTGtA6-20" target="ASfWBYzMuZ3_pJoTGtA6-22" edge="1">
          <mxGeometry width="160" relative="1" as="geometry">
            <mxPoint x="-1549" y="424.5" as="sourcePoint" />
            <mxPoint x="-1389" y="424.5" as="targetPoint" />
          </mxGeometry>
        </mxCell>
        <mxCell id="ASfWBYzMuZ3_pJoTGtA6-26" value="Consultar&amp;nbsp;&lt;br&gt;Obra do artista" style="ellipse;whiteSpace=wrap;html=1;shadow=1;" parent="1" vertex="1">
          <mxGeometry x="-1150" y="405" width="140" height="60" as="geometry" />
        </mxCell>
        <mxCell id="ASfWBYzMuZ3_pJoTGtA6-31" value="O fluxo do diagrama de caso de uso &quot;Avaliar Projetos&quot; inicial após o aprovador logar no sistema e clicar em qualquer dos botões&amp;nbsp; &quot;Area do&amp;nbsp; administrador&quot;, &quot;Gestão&quot;, &quot;Finanças&quot;, &quot;Agenda e Eventos&quot; , &quot;Mapeamento e cadastro de artistas e profissionais de arte, cultura e turismo&quot;, &quot;Lei Audir Blank&quot; , &quot;LIC&quot; , acessado dos pelo link painel/sistemas.&lt;br style=&quot;border-color: var(--border-color);&quot;&gt;&lt;br&gt;Aqui esta sendo considerado que quando é avaliado o projeto significa que o aprovador ira aprovar ou reprovar este." style="shape=note2;boundedLbl=1;whiteSpace=wrap;html=1;size=25;verticalAlign=top;align=left;fillColor=#dae8fc;strokeColor=#6c8ebf;" parent="1" vertex="1">
          <mxGeometry x="-1600" y="100" width="700" height="110" as="geometry" />
        </mxCell>
        <mxCell id="8yAerhRt3FJ0ebHKItId-1" value="Reprovar&lt;br&gt;Projeto" style="ellipse;whiteSpace=wrap;html=1;shadow=1;" parent="1" vertex="1">
          <mxGeometry x="-1293" y="630" width="123" height="60" as="geometry" />
        </mxCell>
        <mxCell id="8yAerhRt3FJ0ebHKItId-2" value="" style="edgeStyle=none;html=1;endArrow=block;endFill=0;endSize=12;verticalAlign=bottom;rounded=0;entryX=0.065;entryY=0.361;entryDx=0;entryDy=0;entryPerimeter=0;exitX=0.5;exitY=0.5;exitDx=0;exitDy=0;exitPerimeter=0;" parent="1" source="ASfWBYzMuZ3_pJoTGtA6-20" target="8yAerhRt3FJ0ebHKItId-1" edge="1">
          <mxGeometry width="160" relative="1" as="geometry">
            <mxPoint x="-1610" y="440" as="sourcePoint" />
            <mxPoint x="-1083" y="323" as="targetPoint" />
          </mxGeometry>
        </mxCell>
        <mxCell id="8yAerhRt3FJ0ebHKItId-4" value="&amp;lt;&amp;lt;Extend&amp;gt;&amp;gt;" style="edgeStyle=none;html=1;endArrow=open;verticalAlign=bottom;dashed=1;labelBackgroundColor=none;rounded=0;entryX=0.033;entryY=0.383;entryDx=0;entryDy=0;entryPerimeter=0;exitX=0.778;exitY=0.446;exitDx=0;exitDy=0;exitPerimeter=0;" parent="1" source="ASfWBYzMuZ3_pJoTGtA6-20" target="ASfWBYzMuZ3_pJoTGtA6-26" edge="1">
          <mxGeometry width="160" relative="1" as="geometry">
            <mxPoint x="-1610" y="440" as="sourcePoint" />
            <mxPoint x="-1247" y="363" as="targetPoint" />
          </mxGeometry>
        </mxCell>
        <mxCell id="8yAerhRt3FJ0ebHKItId-5" value="Consulta&amp;nbsp;&lt;br&gt;Legislação" style="ellipse;whiteSpace=wrap;html=1;shadow=1;" parent="1" vertex="1">
          <mxGeometry x="-1210" y="300" width="90" height="50" as="geometry" />
        </mxCell>
        <mxCell id="8yAerhRt3FJ0ebHKItId-6" value="&amp;lt;&amp;lt;include&amp;gt;&amp;gt;" style="edgeStyle=none;html=1;endArrow=open;verticalAlign=bottom;dashed=1;labelBackgroundColor=none;rounded=0;exitX=0.522;exitY=0.383;exitDx=0;exitDy=0;exitPerimeter=0;" parent="1" source="ASfWBYzMuZ3_pJoTGtA6-20" target="8yAerhRt3FJ0ebHKItId-5" edge="1">
          <mxGeometry width="160" relative="1" as="geometry">
            <mxPoint x="-1560" y="460" as="sourcePoint" />
            <mxPoint x="-1206" y="645" as="targetPoint" />
          </mxGeometry>
        </mxCell>
        <mxCell id="8yAerhRt3FJ0ebHKItId-7" value="Consulta&amp;nbsp;&lt;br&gt;Documento&amp;nbsp;&lt;br&gt;de apoio" style="ellipse;whiteSpace=wrap;html=1;shadow=1;" parent="1" vertex="1">
          <mxGeometry x="-1058.5" y="330" width="140" height="50" as="geometry" />
        </mxCell>
        <mxCell id="8yAerhRt3FJ0ebHKItId-8" value="&amp;lt;&amp;lt;include&amp;gt;&amp;gt;" style="edgeStyle=none;html=1;endArrow=open;verticalAlign=bottom;dashed=1;labelBackgroundColor=none;rounded=0;exitX=0.522;exitY=0.383;exitDx=0;exitDy=0;exitPerimeter=0;entryX=0;entryY=0.5;entryDx=0;entryDy=0;" parent="1" target="8yAerhRt3FJ0ebHKItId-7" edge="1">
          <mxGeometry width="160" relative="1" as="geometry">
            <mxPoint x="-1628" y="423" as="sourcePoint" />
            <mxPoint x="-1119" y="370" as="targetPoint" />
          </mxGeometry>
        </mxCell>
        <mxCell id="8yAerhRt3FJ0ebHKItId-9" value="Consulta&amp;nbsp;&lt;br&gt;Projetos &lt;br&gt;Reprovados" style="ellipse;whiteSpace=wrap;html=1;shadow=1;" parent="1" vertex="1">
          <mxGeometry x="-1130" y="530" width="150" height="65" as="geometry" />
        </mxCell>
        <mxCell id="8yAerhRt3FJ0ebHKItId-10" value="" style="edgeStyle=none;html=1;endArrow=block;endFill=0;endSize=12;verticalAlign=bottom;rounded=0;exitX=0.5;exitY=0.5;exitDx=0;exitDy=0;exitPerimeter=0;" parent="1" source="ASfWBYzMuZ3_pJoTGtA6-20" target="ASfWBYzMuZ3_pJoTGtA6-19" edge="1">
          <mxGeometry width="160" relative="1" as="geometry">
            <mxPoint x="-1629" y="430" as="sourcePoint" />
            <mxPoint x="-1040" y="673" as="targetPoint" />
          </mxGeometry>
        </mxCell>
        <mxCell id="8yAerhRt3FJ0ebHKItId-11" value="" style="edgeStyle=none;html=1;endArrow=block;endFill=0;endSize=12;verticalAlign=bottom;rounded=0;exitX=0.5;exitY=0.5;exitDx=0;exitDy=0;exitPerimeter=0;" parent="1" target="8yAerhRt3FJ0ebHKItId-9" edge="1">
          <mxGeometry width="160" relative="1" as="geometry">
            <mxPoint x="-1629" y="430" as="sourcePoint" />
            <mxPoint x="-1100" y="415" as="targetPoint" />
          </mxGeometry>
        </mxCell>
      </root>
    </mxGraphModel>
  </diagram>
</mxfile>
